<svg width="70" height="70" viewBox="0 0 70 70" fill="none" xmlns="http://www.w3.org/2000/svg">
<rect width="70" height="70" rx="35" fill="#317B22" fill-opacity="0.08"/>
<path d="M38.7781 33.2038C38.7781 32.7378 38.4003 32.36 37.9343 32.36H28.6531C28.1871 32.36 27.8093 32.7378 27.8093 33.2038C27.8093 33.6697 28.1871 34.0475 28.6531 34.0475H37.9343C38.4003 34.0475 38.7781 33.6697 38.7781 33.2038Z" fill="#317B22"/>
<path d="M28.6512 36.6209C28.1853 36.6209 27.8075 36.9988 27.8075 37.4647C27.8075 37.9306 28.1853 38.3084 28.6512 38.3084H33.5722C34.0381 38.3084 34.4159 37.9306 34.4159 37.4647C34.4159 36.9988 34.0381 36.6209 33.5722 36.6209H28.6512Z" fill="#317B22"/>
<path d="M44.3375 33.2506C43.8716 33.2506 43.4937 33.6284 43.4937 34.0944V40.9184C43.4937 42.1953 42.455 43.2341 41.1781 43.2341H35.5344C35.3516 43.2341 35.1734 43.2931 35.0272 43.4038L30.1541 47.0684C30.0303 47.1612 29.9141 47.1228 29.8559 47.0909C29.7969 47.0609 29.6994 46.9869 29.7031 46.8359L29.7969 44.1078C29.8044 43.8791 29.7191 43.6569 29.5606 43.4928C29.4022 43.3278 29.1828 43.235 28.9541 43.235H25.0344C23.7575 43.235 22.7188 42.1972 22.7188 40.9194V29.7631C22.7188 28.4816 23.7575 27.4391 25.0344 27.4391H35.4312C35.8972 27.4391 36.275 27.0613 36.275 26.5953C36.275 26.1294 35.8972 25.7516 35.4312 25.7516H25.0344C22.8275 25.7516 21.0312 27.5516 21.0312 29.7641V40.9194C21.0312 43.1262 22.8275 44.9234 25.0344 44.9234H28.0803L28.0166 46.7816C27.9941 47.5447 28.4 48.2384 29.0778 48.59C29.3675 48.7409 29.6797 48.815 29.9891 48.815C30.4044 48.815 30.8159 48.6809 31.1666 48.4194L35.8156 44.9234H41.1772C43.3841 44.9234 45.1803 43.1272 45.1803 40.9194V34.0953C45.1812 33.6284 44.8034 33.2506 44.3375 33.2506Z" fill="#317B22"/>
<path d="M48.8985 25.2134C48.7457 24.7447 48.3697 24.3941 47.8926 24.2759L45.7363 23.7388L44.5588 21.8544C44.0366 21.0163 42.6735 21.0181 42.1522 21.8544L40.9747 23.7388L38.8185 24.2759C38.3413 24.3941 37.9644 24.7447 37.8126 25.2134C37.6607 25.6822 37.7582 26.1875 38.0751 26.5653L39.5038 28.2659L39.3482 30.4822C39.3135 30.9734 39.531 31.4394 39.9294 31.7291C40.1769 31.9091 40.4676 32.0019 40.7619 32.0019C40.941 32.0019 41.1219 31.9672 41.2954 31.8969L43.356 31.0644L45.4157 31.8969C45.8722 32.0825 46.3822 32.0188 46.7816 31.73C47.1801 31.4403 47.3976 30.9744 47.3638 30.4822L47.2082 28.2659L48.6369 26.5644C48.9529 26.1875 49.0513 25.6822 48.8985 25.2134ZM45.696 27.4419C45.5554 27.6097 45.4851 27.8253 45.501 28.0447L45.651 30.1728L43.6729 29.3731C43.5716 29.3319 43.4638 29.3113 43.3569 29.3113C43.2501 29.3113 43.1422 29.3319 43.041 29.3731L41.0638 30.1728L41.2129 28.0447C41.2279 27.8263 41.1576 27.6097 41.0179 27.4419L39.6463 25.8088L41.7163 25.2922C41.9282 25.2388 42.1119 25.1066 42.2272 24.9209L43.3579 23.1125L44.4885 24.9209C44.6047 25.1066 44.7876 25.2397 44.9994 25.2922L47.0694 25.8088L45.696 27.4419Z" fill="#317B22"/>
</svg>
