<svg width="70" height="70" viewBox="0 0 70 70" fill="none" xmlns="http://www.w3.org/2000/svg">
<rect width="70" height="70" rx="35" fill="#317B22" fill-opacity="0.08"/>
<g clip-path="url(#clip0_136_369)">
<path d="M26.1101 23.2977C24.559 23.2977 23.2976 24.5591 23.2976 26.1102C23.2976 27.6613 24.559 28.9227 26.1101 28.9227C27.6612 28.9227 28.9226 27.6613 28.9226 26.1102C28.9226 24.5591 27.6612 23.2977 26.1101 23.2977ZM26.1101 27.9852C25.076 27.9852 24.2351 27.1442 24.2351 26.1102C24.2351 25.0761 25.076 24.2352 26.1101 24.2352C27.1442 24.2352 27.9851 25.0761 27.9851 26.1102C27.9851 27.1442 27.1442 27.9852 26.1101 27.9852Z" fill="#317B22"/>
<path d="M47.0501 42.8314L46.3873 42.1686L42.9687 45.5872L42.3626 44.9811L41.6998 45.6439L42.9687 46.9128L47.0501 42.8314Z" fill="#317B22"/>
<path d="M36.4062 25.625H37.3438V26.5625H36.4062V25.625Z" fill="#317B22"/>
<path d="M42.0312 25.625H42.9688V26.5625H42.0312V25.625Z" fill="#317B22"/>
<path d="M40.1562 25.625H41.0938V26.5625H40.1562V25.625Z" fill="#317B22"/>
<path d="M38.2812 25.625H39.2188V26.5625H38.2812V25.625Z" fill="#317B22"/>
<path d="M31.25 37.3438H38.75C39.5253 37.3438 40.1562 36.7128 40.1562 35.9375V35.4688H46.25C48.0589 35.4688 49.5312 33.9969 49.5312 32.1875V28.9063C49.5312 27.0969 48.0589 25.625 46.25 25.625H44.8438V25.1563C44.8438 24.3809 44.2128 23.75 43.4375 23.75H35.9375C35.1622 23.75 34.5312 24.3809 34.5312 25.1563V25.625H31.7352V24.815L30.5047 24.4789C30.4644 24.3711 30.4194 24.2638 30.3706 24.1578L31.0039 23.0488L29.172 21.2169L28.0634 21.8497C27.957 21.8009 27.8502 21.7559 27.7423 21.7156L27.4058 20.4852H24.815L24.4784 21.7156C24.3706 21.7559 24.2637 21.8005 24.1578 21.8497L23.0488 21.2169L21.2169 23.0488L21.8497 24.1578C21.8009 24.2638 21.7559 24.3711 21.7156 24.4789L20.4852 24.815V27.4053L21.7156 27.7419C21.7559 27.8497 21.8009 27.957 21.8497 28.063L21.2164 29.172L23.0483 31.0035L24.1573 30.3706C24.2633 30.4194 24.3702 30.4644 24.478 30.5047L24.8145 31.7352H27.4053L27.7419 30.5047C27.8492 30.4644 27.9566 30.4194 28.063 30.3706L29.1716 31.003L31.0034 29.1716L30.3702 28.0625C30.4189 27.9566 30.4639 27.8492 30.5042 27.7414L31.7347 27.4049V26.5625H34.5312V27.0313C34.5312 27.8066 35.1622 28.4375 35.9375 28.4375H43.4375C44.2128 28.4375 44.8438 27.8066 44.8438 27.0313V26.5625H46.25C47.5423 26.5625 48.5938 27.6139 48.5938 28.9063V32.1875C48.5938 33.4799 47.5423 34.5313 46.25 34.5313H40.1562V34.0625C40.1562 33.2872 39.5253 32.6563 38.75 32.6563H31.25C30.4747 32.6563 29.8438 33.2872 29.8438 34.0625V34.5313H23.75C21.9411 34.5313 20.4688 36.0036 20.4688 37.8125V41.5625C20.4688 43.3714 21.9411 44.8438 23.75 44.8438H25.1562V45.3125C25.1562 46.0878 25.7872 46.7188 26.5625 46.7188H34.0625C34.8378 46.7188 35.4688 46.0878 35.4688 45.3125V44.8438H39.2427C39.4803 47.4678 41.69 49.5313 44.375 49.5313C47.218 49.5313 49.5312 47.218 49.5312 44.375C49.5312 41.532 47.218 39.2188 44.375 39.2188C41.69 39.2188 39.4803 41.2822 39.2427 43.9063H35.4688V43.4375C35.4688 42.6622 34.8378 42.0313 34.0625 42.0313H26.5625C25.7872 42.0313 25.1562 42.6622 25.1562 43.4375V43.9063H23.75C22.4577 43.9063 21.4062 42.8549 21.4062 41.5625V37.8125C21.4062 36.5202 22.4577 35.4688 23.75 35.4688H29.8438V35.9375C29.8438 36.7128 30.4747 37.3438 31.25 37.3438ZM30.7977 26.69L29.7697 26.9713L29.6942 27.2174C29.6267 27.4344 29.5367 27.6505 29.4261 27.8595L29.3052 28.0874L29.8348 29.015L29.0155 29.8349L28.0873 29.3056L27.86 29.4261C27.6514 29.5367 27.4353 29.6267 27.2178 29.6938L26.9722 29.7697L26.6905 30.7977H25.5312L25.2495 29.7697L25.0039 29.6938C24.7873 29.6267 24.5712 29.5372 24.3617 29.4261L24.1339 29.3056L23.2063 29.8349L22.3859 29.015L22.9156 28.0874L22.7947 27.8595C22.6841 27.6505 22.5936 27.4344 22.5266 27.2174L22.4511 26.9713L21.4231 26.69V25.5303L22.4511 25.2495L22.527 25.0034C22.5941 24.7864 22.6841 24.5703 22.7947 24.3617L22.9156 24.1334L22.3859 23.2058L23.2053 22.3859L24.133 22.9152L24.3608 22.7947C24.5713 22.6836 24.7873 22.5931 25.003 22.5266L25.2486 22.4506L25.5303 21.4227H26.6895L26.9713 22.4506L27.2169 22.5266C27.4334 22.5936 27.6495 22.6836 27.8591 22.7947L28.0864 22.9152L29.0145 22.3859L29.8339 23.2058L29.3042 24.1334L29.4252 24.3613C29.5358 24.5699 29.6262 24.7859 29.6928 25.003L29.7688 25.2491L30.7967 25.5299V26.69H30.7977ZM43.9062 27.0313C43.9062 27.2895 43.6963 27.5 43.4375 27.5H35.9375C35.6788 27.5 35.4688 27.2895 35.4688 27.0313V25.1563C35.4688 24.898 35.6788 24.6875 35.9375 24.6875H43.4375C43.6963 24.6875 43.9062 24.898 43.9062 25.1563V27.0313ZM44.375 40.1563C46.7014 40.1563 48.5938 42.0486 48.5938 44.375C48.5938 46.7014 46.7014 48.5938 44.375 48.5938C42.0486 48.5938 40.1562 46.7014 40.1562 44.375C40.1562 42.0486 42.0486 40.1563 44.375 40.1563ZM26.0938 43.4375C26.0938 43.1788 26.3038 42.9688 26.5625 42.9688H34.0625C34.3212 42.9688 34.5312 43.1788 34.5312 43.4375V45.3125C34.5312 45.5713 34.3212 45.7813 34.0625 45.7813H26.5625C26.3038 45.7813 26.0938 45.5713 26.0938 45.3125V43.4375ZM30.7812 34.0625C30.7812 33.8042 30.9913 33.5938 31.25 33.5938H38.75C39.0088 33.5938 39.2188 33.8042 39.2188 34.0625V35.9375C39.2188 36.1963 39.0088 36.4063 38.75 36.4063H31.25C30.9913 36.4063 30.7812 36.1963 30.7812 35.9375V34.0625Z" fill="#317B22"/>
<path d="M35.4688 34.5312H36.4062V35.4688H35.4688V34.5312Z" fill="#317B22"/>
<path d="M33.5938 34.5312H34.5312V35.4688H33.5938V34.5312Z" fill="#317B22"/>
<path d="M31.7188 34.5312H32.6562V35.4688H31.7188V34.5312Z" fill="#317B22"/>
<path d="M37.3438 34.5312H38.2812V35.4688H37.3438V34.5312Z" fill="#317B22"/>
<path d="M28.9062 43.9062H29.8438V44.8438H28.9062V43.9062Z" fill="#317B22"/>
<path d="M32.6562 43.9062H33.5938V44.8438H32.6562V43.9062Z" fill="#317B22"/>
<path d="M30.7812 43.9062H31.7188V44.8438H30.7812V43.9062Z" fill="#317B22"/>
<path d="M27.0312 43.9062H27.9688V44.8438H27.0312V43.9062Z" fill="#317B22"/>
</g>
<defs>
<clipPath id="clip0_136_369">
<rect width="30" height="30" fill="white" transform="translate(20 20)"/>
</clipPath>
</defs>
</svg>
