<svg width="70" height="70" viewBox="0 0 70 70" fill="none" xmlns="http://www.w3.org/2000/svg">
<rect width="70" height="70" rx="35" fill="#317B22" fill-opacity="0.08"/>
<path d="M46.0201 45.9692H45.5516V36.4222C45.5516 35.4244 44.7398 34.6125 43.7419 34.6125H39.5008C39.7318 34.3006 39.9376 33.9703 40.116 33.6271H41.0232C41.9886 33.6271 42.774 32.8417 42.774 31.8763V31.6095C43.3118 31.3995 43.6939 30.8763 43.6939 30.2652V27.508C43.6939 26.8526 43.2546 26.2983 42.6551 26.1231C42.0055 22.6104 38.7728 20 35 20C33.6937 20 32.4016 20.3154 31.2633 20.912C31.0484 21.0246 30.9654 21.2902 31.0781 21.5052C31.1907 21.7201 31.4564 21.803 31.6714 21.6904C32.6842 21.1595 33.8352 20.8789 35 20.8789C38.2707 20.8789 41.0821 23.0756 41.7465 26.0651H40.6356C39.8685 23.6855 37.6324 21.9589 35 21.9589C32.3676 21.9589 30.1315 23.6855 29.3645 26.0651H28.2548C28.5371 24.8023 29.2195 23.6259 30.2034 22.7216C30.3821 22.5574 30.3938 22.2794 30.2295 22.1007C30.0653 21.922 29.7873 21.9103 29.6086 22.0745C28.4288 23.1589 27.6306 24.5915 27.3464 26.1226C26.7461 26.2973 26.306 26.852 26.306 27.5079V30.2651C26.306 31.0607 26.9533 31.7079 27.7489 31.7079H29.2043C29.4067 32.7373 29.8522 33.7413 30.4989 34.6125H26.2582C25.2603 34.6125 24.4485 35.4243 24.4485 36.4222V45.9691H23.9799C23.3598 45.9691 22.8553 46.4736 22.8553 47.0937V47.7335C22.8553 48.9832 23.8721 49.9999 25.1218 49.9999H39.7936C40.0363 49.9999 40.233 49.8032 40.233 49.5605C40.233 49.3178 40.0363 49.121 39.7936 49.121H25.1218C24.3566 49.121 23.7342 48.4986 23.7342 47.7335V47.0938C23.7342 46.9583 23.8444 46.8481 23.9799 46.8481H46.0201C46.1556 46.8481 46.2658 46.9583 46.2658 47.0938V47.7335C46.2658 48.4987 45.6433 49.1211 44.8782 49.1211H41.8711C41.6284 49.1211 41.4316 49.3179 41.4316 49.5605C41.4316 49.8032 41.6284 50 41.8711 50H44.8782C46.128 50 47.1447 48.9833 47.1447 47.7335V47.0938C47.1447 46.4737 46.6402 45.9692 46.0201 45.9692ZM41.0233 32.7482H40.5031C40.6271 32.4072 40.7245 32.0589 40.794 31.708H41.8952V31.8763C41.8952 32.3571 41.5041 32.7482 41.0233 32.7482ZM40.9454 26.944H42.2512C42.5622 26.944 42.8152 27.197 42.8152 27.508V30.2652C42.8152 30.5761 42.5622 30.8291 42.2512 30.8291H40.9454V26.944ZM35 22.8378C37.5622 22.8378 39.6825 24.759 39.9984 27.2356H30.0016C30.3175 24.759 32.4378 22.8378 35 22.8378ZM29.0546 30.8291H27.7489C27.4379 30.8291 27.1849 30.5761 27.1849 30.2652V27.508C27.1849 27.197 27.4378 26.944 27.7489 26.944H29.0546V30.8291ZM31.543 34.5073C30.5515 33.3827 29.9595 31.8699 29.9595 30.4605V28.1145H40.0405V30.4605C40.0405 31.2274 39.8715 32.0118 39.561 32.7482H36.0785C35.8358 32.7482 35.639 32.9449 35.639 33.1876C35.639 33.4303 35.8358 33.6271 36.0785 33.6271H39.1081C38.8921 33.9781 38.6422 34.3095 38.3618 34.6125H31.6116C31.5943 34.5753 31.5716 34.5397 31.543 34.5073ZM25.3273 36.4222C25.3273 35.909 25.7448 35.4914 26.2581 35.4914H43.7419C44.2551 35.4914 44.6727 35.909 44.6727 36.4222V45.9692H25.3273V36.4222Z" fill="#317B22"/>
<path d="M35.0001 38.7664C33.9168 38.7664 33.0355 39.6477 33.0355 40.7309C33.0355 41.8142 33.9168 42.6954 35.0001 42.6954C36.0833 42.6954 36.9646 41.8141 36.9646 40.7309C36.9646 39.6477 36.0833 38.7664 35.0001 38.7664ZM35.0001 41.8165C34.4015 41.8165 33.9144 41.3295 33.9144 40.7309C33.9144 40.1323 34.4015 39.6453 35.0001 39.6453C35.5986 39.6453 36.0857 40.1323 36.0857 40.7309C36.0857 41.3295 35.5987 41.8165 35.0001 41.8165Z" fill="#317B22"/>
</svg>
