<svg width="70" height="70" viewBox="0 0 70 70" fill="none" xmlns="http://www.w3.org/2000/svg">
<rect width="70" height="70" rx="35" fill="#317B22" fill-opacity="0.08"/>
<g clip-path="url(#clip0_136_329)">
<path d="M21.8007 36.0738C21.8007 37.0654 22.6074 37.8721 23.599 37.8721C24.5905 37.8721 25.3973 37.0653 25.3973 36.0738C25.3973 35.9406 25.3823 35.8109 25.3547 35.6859L27.9383 34.3919C28.2684 34.7743 28.7559 35.017 29.2994 35.017C30.6945 35.017 31.5589 33.4889 30.842 32.2955L34.0794 29.0526C34.8217 29.4968 35.7839 29.3504 36.3611 28.6817L38.9447 29.9758C38.6956 31.1041 39.56 32.162 40.7005 32.162C42.2556 32.162 43.0782 30.3087 42.032 29.1562L45.8008 23.4933C46.9724 23.9094 48.1993 23.0332 48.1993 21.7984C48.1993 20.8068 47.3925 20 46.401 20C45.4094 20 44.6027 20.8068 44.6027 21.7983C44.6027 22.2626 44.7795 22.6864 45.0695 23.0058L41.3007 28.6687C40.6101 28.4233 39.8311 28.6207 39.3393 29.1904L36.7557 27.8963C36.7833 27.7713 36.7983 27.6417 36.7983 27.5085C36.7983 26.5169 35.9915 25.7102 35 25.7102C33.6055 25.7102 32.7403 27.2379 33.4575 28.4317L30.2201 31.6746C28.8798 30.8725 27.2029 32.0626 27.5438 33.6065L24.9602 34.9005C23.8767 33.6454 21.8007 34.4091 21.8007 36.0738ZM46.401 20.8789C46.9079 20.8789 47.3203 21.2913 47.3203 21.7983C47.3203 22.3053 46.9079 22.7177 46.401 22.7177C45.894 22.7177 45.4816 22.3053 45.4816 21.7983C45.4816 21.2913 45.8939 20.8789 46.401 20.8789ZM40.7005 29.4442C41.2074 29.4442 41.6199 29.8566 41.6199 30.3636C41.6199 30.8705 41.2074 31.283 40.7005 31.283C40.1935 31.283 39.7811 30.8705 39.7811 30.3636C39.7811 29.8566 40.1935 29.4442 40.7005 29.4442ZM35 26.5891C35.5069 26.5891 35.9194 27.0015 35.9194 27.5085C35.9194 28.0154 35.5069 28.4279 35 28.4279C34.493 28.4279 34.0806 28.0154 34.0806 27.5085C34.0806 27.0015 34.4929 26.5891 35 26.5891ZM29.2994 32.2992C29.8064 32.2992 30.2188 32.7117 30.2188 33.2186C30.2188 33.7256 29.8064 34.138 29.2994 34.138C28.7925 34.138 28.38 33.7256 28.38 33.2186C28.38 32.7117 28.7925 32.2992 29.2994 32.2992ZM23.599 36.9932C23.092 36.9932 22.6796 36.5808 22.6796 36.0738C22.6796 35.5669 23.092 35.1545 23.599 35.1545C24.1059 35.1545 24.5184 35.5669 24.5184 36.0738C24.5184 36.5808 24.106 36.9932 23.599 36.9932Z" fill="#317B22"/>
<path d="M49.2214 49.1211H48.6776V39.4644C48.6776 39.2217 48.4809 39.025 48.2381 39.025C47.9954 39.025 47.7987 39.2217 47.7987 39.4644V49.1211H45.0032V27.2275H47.7987V37.4137C47.7987 37.6565 47.9954 37.8532 48.2381 37.8532C48.4809 37.8532 48.6776 37.6565 48.6776 37.4137V27.1555C48.6776 26.7106 48.3155 26.3486 47.8706 26.3486H44.9313C44.4864 26.3486 44.1244 26.7106 44.1244 27.1555V49.1211H42.9771V35.7609C42.9771 35.3159 42.6151 34.9539 42.1702 34.9539H41.7259C41.4832 34.9539 41.2865 35.1506 41.2865 35.3934C41.2865 35.6361 41.4832 35.8328 41.7259 35.8328H42.0983V49.1211H39.3029V35.8328H39.6752C39.9179 35.8328 40.1146 35.6361 40.1146 35.3934C40.1146 35.1506 39.9179 34.9539 39.6752 34.9539H39.2309C38.7859 34.9539 38.424 35.316 38.424 35.7609V49.1211H37.2767V32.8809C37.2767 32.4359 36.9146 32.074 36.4697 32.074H33.5304C33.0855 32.074 32.7235 32.436 32.7235 32.8809V49.1211H31.5763V38.616C31.5763 38.171 31.2142 37.809 30.7693 37.809H27.83C27.3851 37.809 27.0231 38.1711 27.0231 38.616V49.1211H25.8758V41.471C25.8758 41.0261 25.5138 40.6641 25.0689 40.6641H22.1293C21.6844 40.6641 21.3224 41.0261 21.3224 41.471V49.1211H20.7786C20.5358 49.1211 20.3391 49.3178 20.3391 49.5605C20.3391 49.8033 20.5358 50 20.7786 50H49.2214C49.4642 50 49.6609 49.8033 49.6609 49.5605C49.6609 49.3178 49.4641 49.1211 49.2214 49.1211ZM22.2013 49.1211V41.543H24.9967V49.1211H22.2013ZM27.9017 49.1211V38.6879H30.6972V49.1211H27.9017ZM33.6023 49.1211V32.9529H36.3977V49.1211H33.6023Z" fill="#317B22"/>
</g>
<defs>
<clipPath id="clip0_136_329">
<rect width="30" height="30" fill="white" transform="translate(20 20)"/>
</clipPath>
</defs>
</svg>
